<?xml version="1.0" encoding="iso-8859-1"?>
<!-- Generator: Adobe Illustrator 19.0.0, SVG Export Plug-In . SVG Version: 6.00 Build 0)  -->
<svg version="1.1" id="Capa_1" xmlns="http://www.w3.org/2000/svg" xmlns:xlink="http://www.w3.org/1999/xlink" x="0px" y="0px"
	 viewBox="0 0 512 512" style="enable-background:new 0 0 512 512;" xml:space="preserve">
<path style="fill:#83B6FF;" d="M437.16,188.011c37.226,0,67.379,30.152,67.379,67.379s-30.152,67.379-67.379,67.379
	c-28.636,0-307.753,0-336.895,0c-51.208,0-92.646-41.438-92.646-92.646s41.438-92.646,92.646-92.646
	c6.907,0,13.645,0.842,20.129,2.274c14.486-68.642,75.381-120.188,148.318-120.188c83.718,0,151.603,67.884,151.603,151.603
	c0,6.57-0.589,13.055-1.347,19.371C424.78,188.937,430.843,188.011,437.16,188.011z"/>
<g>
	<path style="fill:#E7ECED;" d="M437.16,364.88c0,0,50.534,67.379,0,67.379S437.16,364.88,437.16,364.88z"/>
	<path style="fill:#E7ECED;" d="M344.514,423.837c0,0,50.534,67.379,0,67.379S344.514,423.837,344.514,423.837z"/>
	<path style="fill:#E7ECED;" d="M251.868,364.88c0,0,50.534,67.379,0,67.379S251.868,364.88,251.868,364.88z"/>
	<path style="fill:#E7ECED;" d="M159.223,423.837c0,0,50.534,67.379,0,67.379S159.223,423.837,159.223,423.837z"/>
	<path style="fill:#E7ECED;" d="M66.576,364.88c0,0,50.534,67.379,0,67.379S66.576,364.88,66.576,364.88z"/>
</g>
<path style="fill:#479AF5;" d="M74.999,246.967c0-51.208,41.438-92.646,92.646-92.646c6.907,0,13.644,0.841,20.129,2.273
	c14.486-68.642,75.38-120.187,148.318-120.187c0.702,0,1.378,0.096,2.078,0.105c-20.824-10.765-44.401-16.949-69.457-16.949
	c-72.938,0-133.831,51.545-148.318,120.187c-6.486-1.432-13.223-2.274-20.129-2.274c-51.208,0-92.646,41.438-92.646,92.646
	s41.438,92.646,92.646,92.646c2.703,0,7.575,0,14.181,0C90.605,306.014,74.999,278.352,74.999,246.967z"/>
<g>
	<path style="fill:#231F20;" d="M437.081,181.082c-3.204,0-6.44,0.218-9.686,0.651c0.228-3.154,0.381-6.515,0.381-9.956
		c0-39.214-14.393-76.89-40.525-106.089l-11.237,10.057c23.655,26.43,36.682,60.535,36.682,96.033
		c0,5.314-0.399,11.012-1.294,18.473l-1.337,11.148l10.826-2.981c5.436-1.497,10.883-2.256,16.19-2.256
		c32.995,0,59.839,26.843,59.839,59.839c0,32.995-26.843,59.839-59.839,59.839H192.829v15.08h244.252
		c41.31,0,74.919-33.609,74.919-74.919C512,214.69,478.392,181.082,437.081,181.082z"/>
	<path style="fill:#231F20;" d="M167.568,315.839h-67.382c-46.927,0-85.106-38.178-85.106-85.106s38.178-85.106,85.106-85.106
		c5.976,0,12.202,0.706,18.504,2.097l7.432,1.641l1.571-7.447c6.718-31.832,24.349-60.799,49.646-81.564
		c25.643-21.049,58.064-32.641,91.295-32.641c35.5,0,69.606,13.028,96.036,36.685l10.058-11.237
		c-29.2-26.135-66.877-40.529-106.093-40.529c-36.71,0-72.53,12.808-100.863,36.065c-26.029,21.366-44.711,50.604-53.145,82.945
		c-4.885-0.729-9.719-1.097-14.44-1.097C44.944,130.547,0,175.49,0,230.733c0,55.242,44.944,100.186,100.186,100.186h67.382V315.839
		z"/>
</g>
<path style="fill:#FFFFFF;" d="M160.025,171.776h15.08c0-56.216,45.735-101.95,101.95-101.95v-15.08
	C212.525,54.746,160.025,107.245,160.025,171.776z"/>
<g>
	<rect x="293.896" y="80.017" style="fill:#231F20;" width="16.845" height="15.08"/>
	<rect x="310.746" y="96.857" style="fill:#231F20;" width="16.845" height="15.08"/>
	<rect x="74.919" y="265.305" style="fill:#231F20;" width="16.845" height="15.08"/>
	<rect x="58.075" y="248.455" style="fill:#231F20;" width="16.845" height="15.08"/>
	<rect x="41.23" y="231.615" style="fill:#231F20;" width="16.845" height="15.08"/>
	<path style="fill:#231F20;" d="M257.821,360.967l-6.032-8.043l-6.032,8.043c-0.321,0.427-7.93,10.62-14.471,23.303
		c-9.559,18.538-11.894,32.96-6.942,42.863c4.404,8.81,13.639,13.277,27.445,13.277c13.807,0,23.04-4.467,27.445-13.277
		c4.952-9.903,2.617-24.325-6.942-42.863C265.751,371.586,258.142,361.395,257.821,360.967z M265.744,420.392
		c-2.043,4.082-8.716,4.938-13.955,4.938c-5.239,0-11.914-0.857-13.955-4.938c-1.209-2.416-2.971-10.083,6.77-29.043
		c2.375-4.623,4.946-8.937,7.185-12.459c2.239,3.522,4.811,7.837,7.185,12.459C268.715,410.31,266.954,417.976,265.744,420.392z"/>
	<path style="fill:#231F20;" d="M350.467,419.924l-6.032-8.043l-6.032,8.043c-0.321,0.427-7.93,10.62-14.47,23.303
		c-9.559,18.538-11.894,32.96-6.943,42.863c4.404,8.81,13.639,13.277,27.445,13.277c13.807,0,23.041-4.467,27.445-13.277
		c4.952-9.904,2.617-24.325-6.942-42.863C358.397,430.543,350.788,420.351,350.467,419.924z M358.39,479.348
		c-2.043,4.082-8.716,4.938-13.955,4.938s-11.914-0.857-13.955-4.938c-1.209-2.416-2.971-10.083,6.77-29.043
		c2.375-4.623,4.947-8.937,7.185-12.459c2.239,3.522,4.811,7.836,7.185,12.459C361.362,469.266,359.601,476.933,358.39,479.348z"/>
	<path style="fill:#231F20;" d="M443.113,360.967l-6.032-8.043l-6.032,8.043c-0.321,0.427-7.93,10.62-14.471,23.303
		c-9.559,18.538-11.894,32.96-6.943,42.863c4.404,8.81,13.639,13.277,27.445,13.277c13.807,0,23.04-4.467,27.445-13.277
		c4.952-9.903,2.617-24.325-6.942-42.863C451.044,371.586,443.434,361.395,443.113,360.967z M451.037,420.392
		c-2.043,4.082-8.716,4.938-13.955,4.938s-11.914-0.857-13.955-4.938c-1.209-2.416-2.971-10.083,6.77-29.043
		c2.375-4.623,4.946-8.937,7.185-12.459c2.239,3.522,4.811,7.837,7.185,12.459C454.008,410.31,452.247,417.976,451.037,420.392z"/>
	<path style="fill:#231F20;" d="M165.174,419.924l-6.032-8.043l-6.032,8.043c-0.321,0.427-7.93,10.62-14.471,23.303
		c-9.559,18.538-11.894,32.96-6.942,42.863c4.404,8.81,13.639,13.277,27.445,13.277s23.041-4.467,27.445-13.277
		c4.951-9.904,2.616-24.325-6.943-42.863C173.106,430.543,165.495,420.351,165.174,419.924z M173.099,479.348
		c-2.043,4.082-8.716,4.938-13.955,4.938s-11.913-0.857-13.955-4.938c-1.209-2.416-2.971-10.083,6.77-29.043
		c2.375-4.623,4.947-8.937,7.185-12.459c2.239,3.522,4.811,7.836,7.185,12.459C176.069,469.266,174.308,476.933,173.099,479.348z"/>
	<path style="fill:#231F20;" d="M72.529,360.967l-6.032-8.043l-6.032,8.043c-0.321,0.427-7.93,10.62-14.471,23.303
		c-9.559,18.538-11.894,32.96-6.942,42.863c4.404,8.81,13.639,13.277,27.445,13.277s23.041-4.467,27.445-13.277
		c4.951-9.904,2.616-24.325-6.943-42.863C80.459,371.586,72.849,361.395,72.529,360.967z M80.452,420.392
		c-2.043,4.082-8.716,4.938-13.955,4.938c-5.239,0-11.913-0.857-13.955-4.938c-1.209-2.416-2.971-10.083,6.77-29.043
		c2.375-4.623,4.947-8.937,7.185-12.459c2.239,3.522,4.811,7.837,7.185,12.459C83.424,410.31,81.662,417.976,80.452,420.392z"/>
</g>
<g>
</g>
<g>
</g>
<g>
</g>
<g>
</g>
<g>
</g>
<g>
</g>
<g>
</g>
<g>
</g>
<g>
</g>
<g>
</g>
<g>
</g>
<g>
</g>
<g>
</g>
<g>
</g>
<g>
</g>
</svg>
